# xmcd
#
# Track frame offsets:
# 150
# 13661
# 26740
# 43382
# 56380
# 70755
# 84482
# 100045
# 115068
# 129335
# 145707
# 161324
# 174484
# 188724
# 200454
# 214451
# 229920
# 246750
# 262018
# 279908
# 297435
# 313560
# 328676
#
# Disc length: 4632 seconds
#
#
# Revision: 0
# Processed by: cddbd v1.5.1PL2 Copyright (c) Steve Scherf et al.
# Submitted via: FreeRIP 2.942 
#
DISCID=4b121617
DTITLE=João Mineiro and Marciano - Sucessos De Ouro - João Mineiro and Marciano - Sucessos De Ouro
DYEAR=1998
DGENRE=Sertanejo
TTITLE0=CRISES DE AMOR
TTITLE1=AMOR E AMIZADE
TTITLE2=SEU AMOR AINDA E TUDO
TTITLE3=TELEFONE MAIS
TTITLE4=BENZADEUS
TTITLE5=ALINE
TTITLE6=AS PAREDES AZUIS
TTITLE7=NO MESMO LUGAR
TTITLE8=AINDA ONTEM CHOREI DE SAUDADE
TTITLE9=SE EU NAO PUDER TE ESQUECER
TTITLE10=AMANTES E AMIGOS
TTITLE11=PARE COM ISSO
TTITLE12=MEU DESESPERO
TTITLE13=WHISKY COM GELO
TTITLE14=A PRETENDIDA
TTITLE15=SE EU PUDESSE
TTITLE16=EU DARIA MINHA VIDA
TTITLE17=TUDO PASSARA
TTITLE18=MILAGRE DA FLECHA
TTITLE19=ROMARIA
TTITLE20=ESSE MEU CORACAO SEM JUIZO
TTITLE21=IMPOSSIVEL ACREDITAR QUE PERDI VOCE
TTITLE22=DISTANTE DOS OLHOS
EXTD=
EXTT0=
EXTT1=
EXTT2=
EXTT3=
EXTT4=
EXTT5=
EXTT6=
EXTT7=
EXTT8=
EXTT9=
EXTT10=
EXTT11=
EXTT12=
EXTT13=
EXTT14=
EXTT15=
EXTT16=
EXTT17=
EXTT18=
EXTT19=
EXTT20=
EXTT21=
EXTT22=
PLAYORDER=
